<?xml version="1.0" encoding="UTF-8"?>
<svg id="Layer_2" data-name="Layer 2" xmlns="http://www.w3.org/2000/svg" xmlns:xlink="http://www.w3.org/1999/xlink" viewBox="0 0 202.69 210.47">
  <defs>
    <style>
      .cls-1 {
        fill: url(#linear-gradient-2);
      }

      .cls-2 {
        fill: #1eb6b7;
      }

      .cls-3 {
        fill: url(#linear-gradient);
      }
    </style>
    <linearGradient id="linear-gradient" x1="2.63" y1="105.24" x2="202.69" y2="105.24" gradientUnits="userSpaceOnUse">
      <stop offset="0" stop-color="#774b32"/>
      <stop offset=".37" stop-color="#c89f67"/>
      <stop offset=".66" stop-color="#ac765a"/>
      <stop offset=".99" stop-color="#c89f67"/>
    </linearGradient>
    <linearGradient id="linear-gradient-2" x1="55.52" y1="106.77" x2="129.98" y2="106.77" xlink:href="#linear-gradient"/>
  </defs>
  <g id="Layer_1-2" data-name="Layer 1">
    <g>
      <path class="cls-3" d="M110.53,71.28l-2.22-4.17h-11.7l-2.21,4.27-38.88,75.04c.3-.06.6-.1.9-.16,4.78-.85,10.19-1.82,16.16-2.94.23-.04.47-.09.7-.13l29.28-56.51,17.75,33.29c.29-.29.58-.58.86-.87,4.1-4.23,6.95-8.23,8.81-11.34l-19.45-36.48ZM110.53,71.28l-2.22-4.17h-11.7l-2.21,4.27-38.88,75.04c.3-.06.6-.1.9-.16,4.78-.85,10.19-1.82,16.16-2.94.23-.04.47-.09.7-.13l29.28-56.51,17.75,33.29c.29-.29.58-.58.86-.87,4.1-4.23,6.95-8.23,8.81-11.34l-19.45-36.48ZM102.66,0L2.63,76.49v133.98h35.79l8.58-16.55,11.59-22.37c-7.32.86-13.21,2.11-17.94,3.56l-9.74,18.81h-10.33v-109.93L102.66,21.22l82.08,62.76v109.93h-8.82l-36.71-68.86c-1.92,4.88-4.64,9.94-8.28,14.84l28.8,54.02,8.82,16.55h34.14V76.49L102.66,0ZM110.53,71.28l-2.22-4.17h-11.7l-2.21,4.27-38.88,75.04c.3-.06.6-.1.9-.16,4.78-.85,10.19-1.82,16.16-2.94.23-.04.47-.09.7-.13l29.28-56.51,17.75,33.29c.29-.29.58-.58.86-.87,4.1-4.23,6.95-8.23,8.81-11.34l-19.45-36.48ZM110.53,71.28l-2.22-4.17h-11.7l-2.21,4.27-38.88,75.04c.3-.06.6-.1.9-.16,4.78-.85,10.19-1.82,16.16-2.94.23-.04.47-.09.7-.13l29.28-56.51,17.75,33.29c.29-.29.58-.58.86-.87,4.1-4.23,6.95-8.23,8.81-11.34l-19.45-36.48Z"/>
      <path class="cls-2" d="M2.63,195.15s7.59-25.61,64.45-29.28c59.21-3.83,73.53-47.79,70.59-62.5,0,0-12.18,35.04-64.18,44.77-35.91,6.72-63.01,8.91-71.22,17.98-5.29,5.84.37,29.04.37,29.04Z"/>
      <path class="cls-1" d="M110.53,71.28l-2.22-4.17h-11.7l-2.21,4.27-38.88,75.04c.3-.06.6-.1.9-.16,4.78-.85,10.19-1.82,16.16-2.94.23-.04.47-.09.7-.13l29.28-56.51,17.75,33.29c.29-.29.58-.58.86-.87,4.1-4.23,6.95-8.23,8.81-11.34l-19.45-36.48Z"/>
    </g>
  </g>
</svg>