<?xml version="1.0" encoding="UTF-8"?>
<svg id="Layer_2" data-name="Layer 2" xmlns="http://www.w3.org/2000/svg" viewBox="0 0 619.24 109.95">
  <defs>
    <style>
      .cls-1 {
        fill: #1b1c1e;
      }
    </style>
  </defs>
  <g id="Layer_1-2" data-name="Layer 1">
    <g>
      <path class="cls-1" d="M44.57,109.95c-8.48,0-16.1-1.9-22.87-5.7-6.77-3.8-12.08-9.05-15.93-15.77-3.85-6.71-5.78-14.64-5.78-23.77s1.92-17.06,5.78-23.77c3.85-6.71,9.16-11.94,15.93-15.68,6.77-3.74,14.39-5.61,22.87-5.61,7.26,0,13.81,1.63,19.65,4.87,5.83,3.25,10.48,8.17,13.95,14.78,3.47,6.6,5.2,15.08,5.2,25.42s-1.68,18.68-5.04,25.34c-3.36,6.66-7.92,11.64-13.7,14.94-5.78,3.3-12.46,4.95-20.06,4.95ZM46.89,92.29c4.95,0,9.41-1.1,13.37-3.3,3.96-2.2,7.1-5.39,9.41-9.58,2.31-4.18,3.47-9.08,3.47-14.69s-1.16-10.65-3.47-14.78c-2.31-4.13-5.45-7.29-9.41-9.49-3.96-2.2-8.42-3.3-13.37-3.3s-9.38,1.1-13.29,3.3c-3.91,2.2-7.02,5.37-9.33,9.49-2.31,4.13-3.47,9.05-3.47,14.78s1.16,10.51,3.47,14.69c2.31,4.18,5.42,7.37,9.33,9.58,3.91,2.2,8.34,3.3,13.29,3.3ZM73.8,108.79v-20.8l.66-23.44-1.65-23.44v-20.47h20.64v88.16h-19.65Z"/>
      <path class="cls-1" d="M155.38,109.95c-8.48,0-16.1-1.9-22.87-5.7-6.77-3.8-12.08-9.05-15.93-15.77-3.85-6.71-5.78-14.64-5.78-23.77s1.92-17.06,5.78-23.77c3.85-6.71,9.16-11.94,15.93-15.68,6.77-3.74,14.39-5.61,22.87-5.61,7.26,0,13.81,1.63,19.65,4.87,5.83,3.25,10.48,8.17,13.95,14.78,3.47,6.6,5.2,15.08,5.2,25.42s-1.68,18.68-5.04,25.34c-3.36,6.66-7.92,11.64-13.7,14.94-5.78,3.3-12.46,4.95-20.06,4.95ZM157.7,92.29c4.95,0,9.41-1.1,13.37-3.3,3.96-2.2,7.1-5.39,9.41-9.58,2.31-4.18,3.47-9.08,3.47-14.69s-1.16-10.65-3.47-14.78c-2.31-4.13-5.45-7.29-9.41-9.49-3.96-2.2-8.42-3.3-13.37-3.3s-9.38,1.1-13.29,3.3c-3.91,2.2-7.02,5.37-9.33,9.49-2.31,4.13-3.47,9.05-3.47,14.78s1.16,10.51,3.47,14.69c2.31,4.18,5.42,7.37,9.33,9.58,3.91,2.2,8.34,3.3,13.29,3.3ZM184.6,108.79v-20.8l.66-23.44-1.65-23.44v-20.47h20.64v88.16h-19.65Z"/>
      <path class="cls-1" d="M227.38,108.79V20.64h19.65v24.27l-2.31-7.1c2.64-5.94,6.79-10.45,12.46-13.54,5.67-3.08,12.74-4.62,21.21-4.62v19.65c-.88-.22-1.71-.36-2.48-.41-.77-.05-1.54-.08-2.31-.08-7.82,0-14.03,2.29-18.66,6.85-4.62,4.57-6.93,11.37-6.93,20.39v42.76h-20.64Z"/>
      <path class="cls-1" d="M329.65,109.95c-8.48,0-16.1-1.9-22.86-5.7-6.77-3.8-12.08-9.05-15.93-15.77-3.85-6.71-5.78-14.64-5.78-23.77s1.92-17.06,5.78-23.77c3.85-6.71,9.16-11.94,15.93-15.68,6.77-3.74,14.39-5.61,22.86-5.61,7.26,0,13.81,1.63,19.65,4.87,5.83,3.25,10.48,8.17,13.95,14.78s5.2,15.08,5.2,25.42-1.68,18.68-5.03,25.34c-3.36,6.66-7.92,11.64-13.7,14.94-5.78,3.3-12.46,4.95-20.06,4.95ZM331.97,92.29c4.95,0,9.41-1.1,13.37-3.3,3.96-2.2,7.1-5.39,9.41-9.58,2.31-4.18,3.47-9.08,3.47-14.69s-1.16-10.65-3.47-14.78c-2.31-4.13-5.45-7.29-9.41-9.49-3.96-2.2-8.42-3.3-13.37-3.3s-9.39,1.1-13.29,3.3c-3.91,2.2-7.02,5.37-9.33,9.49-2.31,4.13-3.47,9.05-3.47,14.78s1.16,10.51,3.47,14.69c2.31,4.18,5.42,7.37,9.33,9.58,3.9,2.2,8.34,3.3,13.29,3.3ZM358.87,108.79v-20.8l.66-23.44-1.65-23.44v-20.47h20.64v88.16h-19.65Z"/>
      <path class="cls-1" d="M440.46,109.95c-8.48,0-16.1-1.9-22.87-5.7-6.77-3.8-12.08-9.05-15.93-15.77-3.85-6.71-5.78-14.64-5.78-23.77s1.92-17.06,5.78-23.77c3.85-6.71,9.16-11.94,15.93-15.68,6.77-3.74,14.39-5.61,22.87-5.61,7.26,0,13.81,1.63,19.65,4.87,5.83,3.25,10.48,8.17,13.95,14.78,3.47,6.6,5.2,15.08,5.2,25.42s-1.68,18.68-5.04,25.34c-3.36,6.66-7.92,11.64-13.7,14.94-5.78,3.3-12.46,4.95-20.06,4.95ZM442.77,92.29c4.95,0,9.41-1.1,13.37-3.3,3.96-2.2,7.1-5.39,9.41-9.58,2.31-4.18,3.47-9.08,3.47-14.69s-1.16-10.65-3.47-14.78c-2.31-4.13-5.45-7.29-9.41-9.49-3.96-2.2-8.42-3.3-13.37-3.3s-9.38,1.1-13.29,3.3c-3.91,2.2-7.02,5.37-9.33,9.49-2.31,4.13-3.47,9.05-3.47,14.78s1.16,10.51,3.47,14.69c2.31,4.18,5.42,7.37,9.33,9.58,3.91,2.2,8.34,3.3,13.29,3.3ZM469.68,108.79v-20.8l.66-23.44-1.65-23.44v-20.47h20.64v88.16h-19.65Z"/>
      <path class="cls-1" d="M505.18,108.79v-13.04l54.32-65.71,3.8,7.1h-57.12v-16.51h73.63v13.04l-54.32,65.71-4.13-7.1h59.93v16.51h-76.11Z"/>
      <path class="cls-1" d="M606.03,24.76c-3.85,0-7.02-1.21-9.49-3.63-2.48-2.42-3.71-5.34-3.71-8.75s1.24-6.46,3.71-8.83c2.48-2.37,5.64-3.55,9.49-3.55s7.02,1.13,9.49,3.38c2.48,2.26,3.71,5.09,3.71,8.5,0,3.63-1.21,6.69-3.63,9.16-2.42,2.48-5.61,3.71-9.58,3.71ZM595.63,108.79V39.29h20.64v69.5h-20.64Z"/>
    </g>
  </g>
</svg>