<?xml version="1.0" encoding="UTF-8"?>
<svg id="Layer_1" data-name="Layer 1" xmlns="http://www.w3.org/2000/svg" xmlns:xlink="http://www.w3.org/1999/xlink" viewBox="0 0 1000 250">
  <defs>
    <style>
      .cls-1 {
        fill: url(#linear-gradient-2);
      }

      .cls-2 {
        fill: #1b1c1e;
      }

      .cls-3 {
        fill: #1eb6b7;
      }

      .cls-4 {
        fill: url(#linear-gradient);
      }
    </style>
    <linearGradient id="linear-gradient" x1="70.26" y1="125" x2="270.32" y2="125" gradientUnits="userSpaceOnUse">
      <stop offset="0" stop-color="#774b32"/>
      <stop offset=".37" stop-color="#c89f67"/>
      <stop offset=".66" stop-color="#ac765a"/>
      <stop offset=".99" stop-color="#c89f67"/>
    </linearGradient>
    <linearGradient id="linear-gradient-2" x1="123.15" y1="126.53" x2="197.61" y2="126.53" xlink:href="#linear-gradient"/>
  </defs>
  <g>
    <path class="cls-2" d="M357.7,188.19c-8.48,0-16.1-1.9-22.87-5.7-6.77-3.8-12.08-9.05-15.93-15.77-3.85-6.71-5.78-14.64-5.78-23.77s1.92-17.06,5.78-23.77c3.85-6.71,9.16-11.94,15.93-15.68,6.77-3.74,14.39-5.61,22.87-5.61,7.26,0,13.81,1.63,19.65,4.87,5.83,3.25,10.48,8.17,13.95,14.78,3.47,6.6,5.2,15.08,5.2,25.42s-1.68,18.68-5.04,25.34c-3.36,6.66-7.92,11.64-13.7,14.94-5.78,3.3-12.46,4.95-20.06,4.95ZM360.02,170.53c4.95,0,9.41-1.1,13.37-3.3,3.96-2.2,7.1-5.39,9.41-9.58,2.31-4.18,3.47-9.08,3.47-14.69s-1.16-10.65-3.47-14.78c-2.31-4.13-5.45-7.29-9.41-9.49-3.96-2.2-8.42-3.3-13.37-3.3s-9.38,1.1-13.29,3.3c-3.91,2.2-7.02,5.37-9.33,9.49-2.31,4.13-3.47,9.05-3.47,14.78s1.16,10.51,3.47,14.69c2.31,4.18,5.42,7.37,9.33,9.58,3.91,2.2,8.34,3.3,13.29,3.3ZM386.93,187.04v-20.8l.66-23.44-1.65-23.44v-20.47h20.64v88.16h-19.65Z"/>
    <path class="cls-2" d="M468.51,188.19c-8.48,0-16.1-1.9-22.87-5.7-6.77-3.8-12.08-9.05-15.93-15.77-3.85-6.71-5.78-14.64-5.78-23.77s1.92-17.06,5.78-23.77c3.85-6.71,9.16-11.94,15.93-15.68,6.77-3.74,14.39-5.61,22.87-5.61,7.26,0,13.81,1.63,19.65,4.87,5.83,3.25,10.48,8.17,13.95,14.78,3.47,6.6,5.2,15.08,5.2,25.42s-1.68,18.68-5.04,25.34c-3.36,6.66-7.92,11.64-13.7,14.94-5.78,3.3-12.46,4.95-20.06,4.95ZM470.82,170.53c4.95,0,9.41-1.1,13.37-3.3,3.96-2.2,7.1-5.39,9.41-9.58,2.31-4.18,3.47-9.08,3.47-14.69s-1.16-10.65-3.47-14.78c-2.31-4.13-5.45-7.29-9.41-9.49-3.96-2.2-8.42-3.3-13.37-3.3s-9.38,1.1-13.29,3.3c-3.91,2.2-7.02,5.37-9.33,9.49-2.31,4.13-3.47,9.05-3.47,14.78s1.16,10.51,3.47,14.69c2.31,4.18,5.42,7.37,9.33,9.58,3.91,2.2,8.34,3.3,13.29,3.3ZM497.73,187.04v-20.8l.66-23.44-1.65-23.44v-20.47h20.64v88.16h-19.65Z"/>
    <path class="cls-2" d="M540.51,187.04v-88.16h19.65v24.27l-2.31-7.1c2.64-5.94,6.79-10.45,12.46-13.54,5.67-3.08,12.74-4.62,21.21-4.62v19.65c-.88-.22-1.71-.36-2.48-.41-.77-.05-1.54-.08-2.31-.08-7.82,0-14.03,2.29-18.66,6.85-4.62,4.57-6.93,11.37-6.93,20.39v42.76h-20.64Z"/>
    <path class="cls-2" d="M642.78,188.19c-8.48,0-16.1-1.9-22.86-5.7-6.77-3.8-12.08-9.05-15.93-15.77-3.85-6.71-5.78-14.64-5.78-23.77s1.92-17.06,5.78-23.77c3.85-6.71,9.16-11.94,15.93-15.68,6.77-3.74,14.39-5.61,22.86-5.61,7.26,0,13.81,1.63,19.65,4.87,5.83,3.25,10.48,8.17,13.95,14.78s5.2,15.08,5.2,25.42-1.68,18.68-5.03,25.34c-3.36,6.66-7.92,11.64-13.7,14.94-5.78,3.3-12.46,4.95-20.06,4.95ZM645.09,170.53c4.95,0,9.41-1.1,13.37-3.3,3.96-2.2,7.1-5.39,9.41-9.58,2.31-4.18,3.47-9.08,3.47-14.69s-1.16-10.65-3.47-14.78c-2.31-4.13-5.45-7.29-9.41-9.49-3.96-2.2-8.42-3.3-13.37-3.3s-9.39,1.1-13.29,3.3c-3.91,2.2-7.02,5.37-9.33,9.49-2.31,4.13-3.47,9.05-3.47,14.78s1.16,10.51,3.47,14.69c2.31,4.18,5.42,7.37,9.33,9.58,3.9,2.2,8.34,3.3,13.29,3.3ZM672,187.04v-20.8l.66-23.44-1.65-23.44v-20.47h20.64v88.16h-19.65Z"/>
    <path class="cls-2" d="M753.59,188.19c-8.48,0-16.1-1.9-22.87-5.7-6.77-3.8-12.08-9.05-15.93-15.77-3.85-6.71-5.78-14.64-5.78-23.77s1.92-17.06,5.78-23.77c3.85-6.71,9.16-11.94,15.93-15.68,6.77-3.74,14.39-5.61,22.87-5.61,7.26,0,13.81,1.63,19.65,4.87,5.83,3.25,10.48,8.17,13.95,14.78,3.47,6.6,5.2,15.08,5.2,25.42s-1.68,18.68-5.04,25.34c-3.36,6.66-7.92,11.64-13.7,14.94-5.78,3.3-12.46,4.95-20.06,4.95ZM755.9,170.53c4.95,0,9.41-1.1,13.37-3.3,3.96-2.2,7.1-5.39,9.41-9.58,2.31-4.18,3.47-9.08,3.47-14.69s-1.16-10.65-3.47-14.78c-2.31-4.13-5.45-7.29-9.41-9.49-3.96-2.2-8.42-3.3-13.37-3.3s-9.38,1.1-13.29,3.3c-3.91,2.2-7.02,5.37-9.33,9.49-2.31,4.13-3.47,9.05-3.47,14.78s1.16,10.51,3.47,14.69c2.31,4.18,5.42,7.37,9.33,9.58,3.91,2.2,8.34,3.3,13.29,3.3ZM782.81,187.04v-20.8l.66-23.44-1.65-23.44v-20.47h20.64v88.16h-19.65Z"/>
    <path class="cls-2" d="M818.31,187.04v-13.04l54.32-65.71,3.8,7.1h-57.12v-16.51h73.63v13.04l-54.32,65.71-4.13-7.1h59.93v16.51h-76.11Z"/>
    <path class="cls-2" d="M919.16,103c-3.85,0-7.02-1.21-9.49-3.63-2.48-2.42-3.71-5.34-3.71-8.75s1.24-6.46,3.71-8.83c2.48-2.37,5.64-3.55,9.49-3.55s7.02,1.13,9.49,3.38c2.48,2.26,3.71,5.09,3.71,8.5,0,3.63-1.21,6.69-3.63,9.16-2.42,2.48-5.61,3.71-9.58,3.71ZM908.76,187.04v-69.5h20.64v69.5h-20.64Z"/>
  </g>
  <g>
    <path class="cls-4" d="M178.16,91.05l-2.22-4.17h-11.7l-2.21,4.27-38.88,75.04c.3-.06.6-.1.9-.16,4.78-.85,10.19-1.82,16.16-2.94.23-.04.47-.09.7-.13l29.28-56.51,17.75,33.29c.29-.29.58-.58.86-.87,4.1-4.23,6.95-8.23,8.81-11.34l-19.45-36.48ZM178.16,91.05l-2.22-4.17h-11.7l-2.21,4.27-38.88,75.04c.3-.06.6-.1.9-.16,4.78-.85,10.19-1.82,16.16-2.94.23-.04.47-.09.7-.13l29.28-56.51,17.75,33.29c.29-.29.58-.58.86-.87,4.1-4.23,6.95-8.23,8.81-11.34l-19.45-36.48ZM170.29,19.76l-100.03,76.49v133.98h35.79l8.58-16.55,11.59-22.37c-7.32.86-13.21,2.11-17.94,3.56l-9.74,18.81h-10.33v-109.93l82.08-62.76,82.08,62.76v109.93h-8.82l-36.71-68.86c-1.92,4.88-4.64,9.94-8.28,14.84l28.8,54.02,8.82,16.55h34.14V96.26L170.29,19.76ZM178.16,91.05l-2.22-4.17h-11.7l-2.21,4.27-38.88,75.04c.3-.06.6-.1.9-.16,4.78-.85,10.19-1.82,16.16-2.94.23-.04.47-.09.7-.13l29.28-56.51,17.75,33.29c.29-.29.58-.58.86-.87,4.1-4.23,6.95-8.23,8.81-11.34l-19.45-36.48ZM178.16,91.05l-2.22-4.17h-11.7l-2.21,4.27-38.88,75.04c.3-.06.6-.1.9-.16,4.78-.85,10.19-1.82,16.16-2.94.23-.04.47-.09.7-.13l29.28-56.51,17.75,33.29c.29-.29.58-.58.86-.87,4.1-4.23,6.95-8.23,8.81-11.34l-19.45-36.48Z"/>
    <path class="cls-3" d="M70.26,214.91s7.59-25.61,64.45-29.28c59.21-3.83,73.53-47.79,70.59-62.5,0,0-12.18,35.04-64.18,44.77-35.91,6.72-63.01,8.91-71.22,17.98-5.29,5.84.37,29.04.37,29.04Z"/>
    <path class="cls-1" d="M178.16,91.05l-2.22-4.17h-11.7l-2.21,4.27-38.88,75.04c.3-.06.6-.1.9-.16,4.78-.85,10.19-1.82,16.16-2.94.23-.04.47-.09.7-.13l29.28-56.51,17.75,33.29c.29-.29.58-.58.86-.87,4.1-4.23,6.95-8.23,8.81-11.34l-19.45-36.48Z"/>
  </g>
</svg>